PathFileType	4	(X/Y/Z)	/Users/itak/Documents/Research/Walk-IL/dataset/trc/00222_00009.trc
DataRate	CameraRate	NumFrames	NumMarkers	Units	OrigDataRate	OrigDataStartFrame	OrigNumFrames
100.000000	100.000000	4	53	mm	100.000000	298	477
Frame#	Time	RPSI			LPSI			L3			STRN			T10			C7			CLAV			RBAK			LBAK			LSHO			LUPA			LAEL			LAOL			LWTS			LWPS			LFRA			LIFD			LHPS			LHTS			RSHO			RUPA			RAEL			RAOL			RWTS			RWPS			RFRA			RIFD			RHTS			RHPS			RBHD			LFHD			RFHD			LBHD			LHIP			RHIP			RASI			LASI			LKNE			LTHI			LANK			LTIP			LTOE			LMT1			LMT5			LHEE			RKNE			RANK			RTIP			RTOE			RMT1			RMT5			RHEE			RTHI			
		X1	Y1	Z1	X2	Y2	Z2	X3	Y3	Z3	X4	Y4	Z4	X5	Y5	Z5	X6	Y6	Z6	X7	Y7	Z7	X8	Y8	Z8	X9	Y9	Z9	X10	Y10	Z10	X11	Y11	Z11	X12	Y12	Z12	X13	Y13	Z13	X14	Y14	Z14	X15	Y15	Z15	X16	Y16	Z16	X17	Y17	Z17	X18	Y18	Z18	X19	Y19	Z19	X20	Y20	Z20	X21	Y21	Z21	X22	Y22	Z22	X23	Y23	Z23	X24	Y24	Z24	X25	Y25	Z25	X26	Y26	Z26	X27	Y27	Z27	X28	Y28	Z28	X29	Y29	Z29	X30	Y30	Z30	X31	Y31	Z31	X32	Y32	Z32	X33	Y33	Z33	X34	Y34	Z34	X35	Y35	Z35	X36	Y36	Z36	X37	Y37	Z37	X38	Y38	Z38	X39	Y39	Z39	X40	Y40	Z40	X41	Y41	Z41	X42	Y42	Z42	X43	Y43	Z43	X44	Y44	Z44	X45	Y45	Z45	X46	Y46	Z46	X47	Y47	Z47	X48	Y48	Z48	X49	Y49	Z49	X50	Y50	Z50	X51	Y51	Z51	X52	Y52	Z52	X53	Y53	Z53	

299	2.98	103.462532043457	1027.961303710938	-53.82391738891602	92.88336181640625	1034.443481445312	65.56234741210938	92.25349426269531	1117.727172851562	24.68537330627441	-177.3021697998047	1280.451293945312	8.213903427124023	82.56160736083984	1245.087524414062	22.95728874206543	-4.099610328674316	1499.684448242188	17.88120269775391	-160.9988250732422	1399.777099609375	6.644979000091553	89.62119293212891	1367.616577148438	-48.78966522216797	6.596571445465088	1463.008911132812	133.7608184814453	-89.00241088867188	1457.580444335938	177.8347473144531	-80.19962310791016	1341.62548828125	260.9296569824219	-133.6751403808594	1135.806030273438	288.166015625	-57.00212860107422	1105.544311523438	258.2710876464844	-253.6813049316406	921.1564331054688	212.2015991210938	-247.8439788818359	902.1823120117188	294.6922912597656	-177.9520263671875	1034.748046875	296.2890625	-301.9489440917969	732.2835693359375	218.7985992431641	-281.2998657226562	819.2821655273438	287.0268859863281	-312.1260986328125	830.3004760742188	226.5923461914062	-47.87147521972656	1449.77294921875	-153.9076538085938	-20.51208877563477	1386.397338867188	-218.9380645751953	11.11347198486328	1108.499145507812	-264.0042419433594	37.28617477416992	1096.883056640625	-172.889404296875	-125.9073791503906	892.3908081054688	-251.2522583007812	-64.57146453857422	881.84423828125	-308.5923156738281	-12.53100681304932	1041.18505859375	-282.8499145507812	-140.1549224853516	699.9091186523438	-259.9168395996094	-163.8392791748047	773.8936157226562	-280.4083862304688	-103.3380966186523	775.5828247070312	-321.9179992675781	-43.80301666259766	1645.81689453125	-43.82206344604492	-248.5694122314453	1691.234375	43.51223373413086	-245.4613189697266	1686.328247070312	-56.41208648681641	-92.28207397460938	1657.881591796875	87.23226928710938	-11.68105697631836	968.2432250976562	201.6191253662109	11.70588302612305	987.5350952148438	-164.7564544677734	-86.27346801757812	1025.493408203125	-130.4621124267578	-112.5032272338867	1003.771911621094	148.546875	2.372598886489868	484.6717224121094	148.1990051269531	-14.31461620330811	628.4107666015625	177.9977416992188	179.4657135009766	33.75132751464844	129.8329620361328	94.98530578613281	271.3013000488281	147.8148956298828	-32.07960891723633	41.21066665649414	67.37579345703125	36.38112258911133	36.41187286376953	25.93394470214844	49.09812545776367	32.67665481567383	143.047607421875	243.5051116943359	47.77962493896484	80.17713165283203	-160.4248352050781	522.6661987304688	-140.5875244140625	-246.0413208007812	35.67967224121094	-119.4482192993164	-206.6912689208984	411.1451721191406	-127.3376770019531	-446.1663818359375	107.6872406005859	-100.3406524658203	-399.47607421875	88.6905517578125	-51.0294303894043	-347.9921264648438	64.64890289306641	-154.8406982421875	-191.5780944824219	23.46539306640625	-53.41050338745117	-85.21086120605469	776.277099609375	-182.0979766845703	
300	2.99	111.1336669921875	1028.411987304688	-52.36974334716797	100.0442276000977	1035.061645507812	67.01052856445312	99.77210998535156	1118.423828125	26.06451416015625	-170.2334442138672	1280.957153320312	9.057282447814941	89.99432373046875	1245.826782226562	24.46351623535156	2.769514322280884	1500.330322265625	19.60888290405273	-154.0189819335938	1400.3056640625	7.759096622467041	96.8138427734375	1368.46240234375	-46.98584747314453	13.22238254547119	1463.378540039062	135.4910583496094	-82.47113037109375	1457.802612304688	179.1587829589844	-74.43107604980469	1341.844970703125	262.1049194335938	-129.4477233886719	1136.430053710938	289.068359375	-52.82143783569336	1105.587158203125	259.6319885253906	-250.8440246582031	922.9293823242188	212.1309814453125	-245.6490631103516	903.7753295898438	294.6018371582031	-174.6243286132812	1035.7255859375	296.8075256347656	-300.9212036132812	734.5055541992188	218.1233673095703	-279.8355407714844	821.2296752929688	286.6363830566406	-310.25439453125	832.6315307617188	226.0321655273438	-40.46225357055664	1450.70068359375	-152.4885711669922	-12.77100372314453	1387.269653320312	-217.4175109863281	19.30193519592285	1109.2177734375	-261.7494812011719	44.90297317504883	1097.801635742188	-170.4445037841797	-117.7590179443359	893.0431518554688	-249.4658660888672	-55.93254089355469	882.4312133789062	-306.3578796386719	-4.139774799346924	1041.83837890625	-280.5999450683594	-131.4903869628906	700.4264526367188	-257.6779174804688	-155.211181640625	774.3162841796875	-278.4604187011719	-94.43878173828125	776.0606079101562	-319.6549682617188	-37.73758697509766	1646.943969726562	-41.99214935302734	-242.9285583496094	1690.874389648438	45.14812088012695	-239.7220611572266	1686.021728515625	-54.80909729003906	-86.45877838134766	1658.608276367188	89.01414489746094	-5.111522197723389	969.236572265625	202.8164367675781	19.83980560302734	987.74609375	-163.607666015625	-78.44893646240234	1025.929565429688	-129.5455169677734	-105.7816314697266	1004.719848632812	149.1939544677734	7.898041725158691	485.5745544433594	149.0320739746094	-8.405393600463867	629.3380126953125	178.8391723632812	179.81201171875	33.34403228759766	130.0600128173828	97.83202362060547	271.2343444824219	148.2131500244141	-31.85313415527344	41.30355834960938	67.26410675048828	36.53538131713867	36.21248626708984	25.81302642822266	49.11367797851562	32.75298690795898	142.9349670410156	243.7733459472656	46.54219055175781	80.22437286376953	-153.0344848632812	523.0604248046875	-140.111572265625	-238.7395782470703	36.12006759643555	-118.8195953369141	-199.4242706298828	411.6624450683594	-127.0699157714844	-438.9421997070312	108.3334732055664	-101.6013641357422	-392.7206726074219	89.28836059570312	-51.90200424194336	-340.4079895019531	65.28043365478516	-155.2187042236328	-184.9447326660156	23.66876220703125	-52.44853973388672	-76.74882507324219	776.41015625	-181.5629730224609	
301	3	118.5712585449219	1029.04345703125	-50.92466735839844	106.9130706787109	1035.834838867188	68.45590972900391	107.0458679199219	1119.245971679688	27.40443992614746	-163.2737731933594	1281.712646484375	9.786215782165527	97.26588439941406	1246.695434570312	25.80004692077637	9.60698413848877	1501.141845703125	21.15939140319824	-147.0927429199219	1401.071899414062	8.755843162536621	103.9321975708008	1369.45458984375	-45.36479949951172	19.87803649902344	1463.9140625	137.0250549316406	-75.87349700927734	1458.224487304688	180.38232421875	-68.44792938232422	1342.225708007812	263.146240234375	-124.923942565918	1137.20849609375	289.8815612792969	-48.38439559936523	1105.830444335938	260.8305358886719	-247.6259307861328	924.8317260742188	212.0107879638672	-243.0328521728516	905.48583984375	294.4606323242188	-170.9301147460938	1036.8408203125	297.26025390625	-299.5004272460938	736.8812866210938	217.3949127197266	-277.9209594726562	823.301513671875	286.1990051269531	-307.9824523925781	835.0970458984375	225.4471893310547	-33.11957168579102	1451.775390625	-151.23095703125	-5.123373508453369	1388.264770507812	-216.0463104248047	27.44754981994629	1110.047607421875	-259.5626831054688	52.49074554443359	1098.874389648438	-168.0761108398438	-109.5967330932617	893.7901000976562	-247.6379089355469	-47.26977920532227	883.0740356445312	-304.0715637207031	4.241121292114258	1042.58349609375	-278.3856811523438	-122.8611755371094	701.0482177734375	-255.2506866455078	-146.5835876464844	774.8258666992188	-276.3916320800781	-85.54420471191406	776.5784912109375	-317.2573852539062	-31.63958358764648	1648.292236328125	-40.26888275146484	-237.2005462646484	1690.772338867188	46.76184844970703	-233.9162750244141	1686.029907226562	-53.23343658447266	-80.56156921386719	1659.51025390625	90.70697021484375	1.106577396392822	970.3397827148438	203.9526672363281	27.76993179321289	988.179931640625	-162.51123046875	-70.90015411376953	1026.591186523438	-128.7358245849609	-99.35420227050781	1005.815734863281	149.7428436279297	13.14007377624512	486.6046447753906	149.7213439941406	-2.758411169052124	630.373291015625	179.5924377441406	180.0865020751953	33.10092926025391	130.1913757324219	100.5748977661133	271.406005859375	148.5687561035156	-31.65980529785156	41.39252090454102	67.13681030273438	36.63629150390625	36.06232452392578	25.71193504333496	49.12528991699219	32.83333969116211	142.8018951416016	243.9353942871094	45.62226104736328	80.21537017822266	-146.0970001220703	523.7036743164062	-139.6547241210938	-229.8683013916016	36.60454177856445	-118.0751113891602	-192.2846527099609	412.2579345703125	-126.7376251220703	-430.4871215820312	107.8990859985352	-102.6023559570312	-384.6160888671875	89.02190399169922	-52.52656173706055	-331.4889526367188	65.26557922363281	-155.4162445068359	-176.6336212158203	24.31212043762207	-51.38291168212891	-68.6170654296875	776.8118896484375	-181.1303558349609	
302	3.01	125.7700271606445	1029.86376953125	-49.46714782714844	113.5015563964844	1036.765258789062	69.90674591064453	114.0668869018555	1120.209594726562	28.72600555419922	-156.4290161132812	1282.712646484375	10.40070247650146	104.3752059936523	1247.708740234375	26.98969650268555	16.3906192779541	1502.116821289062	22.53338623046875	-140.2409820556641	1402.069580078125	9.632322311401367	110.9606323242188	1370.602661132812	-43.9194450378418	26.52839469909668	1464.6298828125	138.3670043945312	-69.24617004394531	1458.862915039062	181.5030212402344	-62.27732849121094	1342.787353515625	264.0610046386719	-120.0926361083984	1138.151977539062	290.5950317382812	-43.67783737182617	1106.293212890625	261.8507080078125	-244.0161590576172	926.8610229492188	211.8460083007812	-239.9686737060547	907.3093872070312	294.27392578125	-166.8571929931641	1038.098022460938	297.6424255371094	-297.6770935058594	739.4092407226562	216.6223449707031	-275.5364379882812	825.4898071289062	285.7210083007812	-305.2955017089844	837.6920776367188	224.8495941162109	-25.86376762390137	1452.998168945312	-150.1282043457031	2.407644510269165	1389.389892578125	-214.819580078125	35.52407455444336	1111.00732421875	-257.4559936523438	60.04085922241211	1100.116577148438	-165.8019714355469	-101.4278411865234	894.6383056640625	-245.7766723632812	-38.613525390625	883.7940063476562	-301.7611083984375	12.58170413970947	1043.442504882812	-276.2217712402344	-114.2386703491211	701.780517578125	-252.6676025390625	-137.9592437744141	775.4305419921875	-274.2216186523438	-76.66902923583984	777.154052734375	-314.7570495605469	-25.51210594177246	1649.83544921875	-38.66422653198242	-231.3834381103516	1690.942260742188	48.33588027954102	-228.0364685058594	1686.364990234375	-51.69677734375	-74.58610534667969	1660.573364257812	92.30107116699219	6.992238998413086	971.5301513671875	205.0245361328125	35.5103874206543	988.878173828125	-161.4622497558594	-63.58668899536133	1027.50634765625	-128.0612945556641	-93.18836975097656	1007.031921386719	150.1889190673828	18.0947208404541	487.7223815917969	150.3043975830078	2.596817970275879	631.486572265625	180.2615509033203	180.2660980224609	32.94337844848633	130.2861022949219	103.1850051879883	271.7688903808594	148.9281616210938	-31.49835014343262	41.47748947143555	67.00689697265625	36.69797134399414	35.96545028686523	25.64357757568359	49.14123153686523	32.90699768066406	142.6802520751953	244.0147552490234	44.95431137084961	80.22396850585938	-139.5887908935547	524.6171264648438	-139.2172241210938	-219.4035949707031	37.11377716064453	-117.2316436767578	-185.2366790771484	412.9338073730469	-126.3385314941406	-420.7031860351562	106.5537185668945	-103.2466659545898	-375.0483703613281	88.01766967773438	-52.83564376831055	-321.1798095703125	64.71170043945312	-155.4074249267578	-166.5952453613281	25.29080390930176	-50.25795745849609	-60.8497200012207	777.546875	-180.8193817138672	
